# xmcd
# 
# Track frame offsets:
#     150
#     16947
#     31350
#     44930
#     67862
#     76390
#     89004
#     109740
#     119370
#     137790
#     151172
#     167915
# 
# Disc length: 2334
# 
# Revision: 1
# Processed by: cddbd v1.5.2PL0 Copyright (c) Steve Scherf et al.
# Submitted via: BonkEnc v1.0beta4
# 
DISCID=9e091c0c
DTITLE=Bar-J Wranglers - A Closer Walk with Thee
DYEAR=0
DGENRE=
TTITLE0=Amazing Grace
TTITLE1=Cowboy's Dreams
TTITLE2=The Mystery of His Way
TTITLE3=He Walks With The Wild And The Lonely
TTITLE4=Alleluia
TTITLE5=Cowboy Camp Meetin'
TTITLE6=Just A Closer Walk With Thee
TTITLE7=I Believe
TTITLE8=How Great Thou Art
TTITLE9=Gold Mine In The Sky
TTITLE10=Drinkin' From My Saucer
TTITLE11=Our Best To You
EXTD=
EXTT0=
EXTT1=
EXTT2=
EXTT3=
EXTT4=
EXTT5=
EXTT6=
EXTT7=
EXTT8=
EXTT9=
EXTT10=
EXTT11=
PLAYORDER=
